#!OML:ASF E:\Steps\Project 1\Capture day 1\Session 2\Subject.ASF
:FULLY-SPECIFIED
:DEGREES
371
root 8.93886 23.7177 19.1351 -115.655 -82.6371 -216.34
lowerback -24.1281 -2.79842 -2.99458
upperback -2.3079 -3.05287 -0.54563
thorax 11.0377 -1.65262 0.0769695
lowerneck 6.03282 -0.110351 -13.1954
upperneck -13.3269 0.0132446 13.853
head -4.92518 -0.298365 6.61757
rclavicle 4.08751e-015 5.1684e-015
rhumerus -22.5788 13.0722 -59.3457
rradius 48.9571
rwrist -3.13768
rhand 3.36769 -47.5733
rfingers 7.12502
rthumb 28.8118 -75.3693
lclavicle 4.08751e-015 5.1684e-015
lhumerus -30.487 -15.3105 64.9768
lradius 27.7144
lwrist -12.2981
lhand -24.8846 -19.9687
lfingers 7.12502
lthumb 1.62305 10.0049
rfemur -35.5019 6.89691 10.5367
rtibia 14.2789
rfoot 15.9899 -17.2357
rtoes -21.1123
lfemur -35.3955 -4.29666 -19.5491
ltibia 14.3313
lfoot 27.8791 9.76029
ltoes -48.1416
372
root 8.93449 23.4997 19.127 -115.445 -83.0169 -216.391
lowerback -24.143 -2.71785 -2.98705
upperback -2.36683 -2.95334 -0.532924
thorax 10.9759 -1.60665 0.121388
lowerneck 5.81032 -0.112851 -12.9698
upperneck -13.0501 0.031953 13.758
head -4.80634 -0.285495 6.53453
rclavicle -3.4017e-014 -9.34288e-015
rhumerus -21.8114 13.5317 -59.098
rradius 49.4204
rwrist -3.65268
rhand 3.40526 -47.4624
rfingers 7.12502
rthumb 28.8477 -75.2523
lclavicle -3.4017e-014 -9.34288e-015
lhumerus -31.3323 -15.7864 64.4221
lradius 27.3861
lwrist -11.9662
lhand -25.2548 -19.3369
lfingers 7.12502
lthumb 1.26552 10.6391
rfemur -35.6255 6.24743 11.3129
rtibia 13.8008
rfoot 16.911 -16.2345
rtoes -28.8234
lfemur -35.3874 -4.24785 -19.3351
ltibia 13.8185
lfoot 27.398 10.2899
ltoes -47.7113
373
root 8.92686 23.2715 19.1221 -114.503 -83.3796 -217.227
lowerback -24.1499 -2.59474 -2.94069
upperback -2.43491 -2.80036 -0.603225
thorax 10.8914 -1.5321 0.069376
lowerneck 5.69857 -0.165586 -12.7635
upperneck -12.7986 -0.0257218 13.7041
head -4.70335 -0.31451 6.47474
rclavicle -3.10601e-014 -4.67144e-015
rhumerus -21.1389 13.8526 -58.9362
rradius 49.8032
rwrist -4.1145
rhand 3.86894 -47.3207
rfingers 7.12502
rthumb 29.2906 -75.0341
lclavicle -3.10601e-014 -4.67144e-015
lhumerus -32.1404 -16.2463 63.9013
lradius 26.9736
lwrist -11.7997
lhand -25.3184 -19.3079
lfingers 7.12502
lthumb 1.20406 10.6684
rfemur -35.7204 5.89173 11.7703
rtibia 13.4981
rfoot 16.6603 -16.2769
rtoes -30.4298
lfemur -35.3229 -4.27922 -19.1983
ltibia 13.3024
lfoot 26.8089 10.8028
ltoes -47.2144
374
root 8.91619 23.0323 19.1142 -112.758 -83.5693 -218.96
lowerback -24.0992 -2.55013 -3.16325
upperback -2.42068 -2.67832 -0.638737
thorax 10.8848 -1.48352 0.199072
lowerneck 5.43362 -0.224753 -12.7115
upperneck -12.5043 -0.0928705 13.6778
head -4.55957 -0.337688 6.44846
rclavicle -4.32357e-015 -3.08116e-015
rhumerus -20.3551 14.0522 -58.6986
rradius 50.2735
rwrist -4.31351
rhand 4.35919 -48.266
rfingers 7.12502
rthumb 29.7586 -75.8967
lclavicle -4.32357e-015 -3.08116e-015
lhumerus -32.7811 -16.0155 63.285
lradius 26.371
lwrist -12.1519
lhand -25.1559 -20.3726
lfingers 7.12502
lthumb 1.36095 9.60281
rfemur -35.7329 5.11045 12.3009
rtibia 13.2013
rfoot 16.6933 -15.4759
rtoes -32.0215
lfemur -35.1027 -4.3962 -19.2277
ltibia 12.7544
lfoot 26.2665 11.269
ltoes -45.5437
375
root 8.90938 22.7825 19.1047 -111.617 -83.8188 -220.049
lowerback -24.0812 -2.43919 -3.23796
upperback -2.41758 -2.50233 -0.731793
thorax 10.8714 -1.40198 0.197067
lowerneck 5.18384 -0.278649 -12.6234
upperneck -12.2446 -0.147863 13.668
head -4.43076 -0.358519 6.4222
rclavicle 8.59744e-015 1.2424e-014
rhumerus -19.7256 14.0766 -58.6657
rradius 50.8532
rwrist -4.51745
rhand 3.83034 -47.6443
rfingers 7.12502
rthumb 29.2537 -75.3641
lclavicle 8.59744e-015 1.2424e-014
lhumerus -33.4888 -16.2655 62.8318
lradius 26.0321
lwrist -12.1516
lhand -25.418 -20.1435
lfingers 7.12502
lthumb 1.10789 9.83338
rfemur -35.4804 5.50993 12.4371
rtibia 12.3333
rfoot 16.3738 -16.0517
rtoes -32.0543
lfemur -34.9175 -4.57399 -19.0697
ltibia 12.1682
lfoot 25.7724 11.5672
ltoes -44.3811
376
root 8.90193 22.5218 19.0913 -110.685 -84.11 -220.981
lowerback -24.0302 -2.24069 -3.36102
upperback -2.37384 -2.19116 -0.869899
thorax 10.8819 -1.25752 0.217276
lowerneck 4.89225 -0.392116 -12.4301
upperneck -11.9997 -0.269411 13.6762
head -4.2902 -0.417261 6.38645
rclavicle -1.81391e-014 3.67752e-014
rhumerus -19.1966 13.6172 -58.7597
rradius 51.2753
rwrist -4.57318
rhand 3.80059 -47.9132
rfingers 7.12502
rthumb 29.2253 -75.638
lclavicle -1.81391e-014 3.67752e-014
lhumerus -34.0228 -16.9765 62.5138
lradius 25.6446
lwrist -11.8368
lhand -25.6315 -20.201
lfingers 7.12502
lthumb 0.901609 9.77684
rfemur -35.3102 6.17771 12.4315
rtibia 11.7134
rfoot 15.646 -17.2044
rtoes -30.228
lfemur -34.6872 -4.79473 -18.8008
ltibia 11.5734
lfoot 25.3666 11.5419
ltoes -44.7618
